<svg xmlns="http://www.w3.org/2000/svg" xmlns:xlink="http://www.w3.org/1999/xlink" viewBox="0 0 1100 1650"><defs><style>.cls-1{fill:none;}.cls-2{fill:#2383eb;}.cls-3{opacity:0.53;}.cls-4,.cls-6{fill:#fff;}.cls-5{clip-path:url(#clip-path);}.cls-6{font-size:45.68px;}.cls-6,.cls-7{font-family:Poppins-Bold, Poppins;font-weight:700;}.cls-7{font-size:24px;fill:#ffcf30;}</style><clipPath id="clip-path"><rect class="cls-1" x="132.32" y="226.27" width="835.36" height="983.15" rx="54.18"/></clipPath></defs><g id="BACKGROUND"><rect class="cls-2" width="1100" height="1650"/><g class="cls-3"><path class="cls-4" d="M456.65-40.45l-.59.56L411.66.62l-.2-.09L332.32-36.39l1.11-.06ZM411.44-.08,455-39.8,334.67-35.9Z"/><path class="cls-4" d="M412,.19l-.41.47h-.07L320.88,6.32l-.14-.08L210.94-93.65l1.56.73L332.76-36.81l.46.36.37.06ZM321,5.72,410.64.15l-77.18-36h-.36l-.62-.49L213.83-91.7Z"/><path class="cls-4" d="M486.83,10l-.49,0L411.92.73,411,.36l.25-.3,44.53-40.67.22.41ZM412.15.18l73.61,9.15-30-49Z"/><path class="cls-4" d="M512.94,47.3l-1.2,0L372.84,45l.43-.46L411.3.1l.7.09ZM374.17,44.49,510.4,46.7,411.87.69l-.21,0Z"/><path class="cls-4" d="M524.84-36.51,519.76-3.27,519.32-4,485.19,10.5l.88-1ZM519.36-4.62l4.55-29.77L487.4,8.9Z"/><path class="cls-4" d="M525-35.72l-.33.47L486.28,10.24l-.23-.45L455.31-40.45l.46,0ZM486.3,9.19l37.48-44.44-67.49-4.56Z"/><path class="cls-4" d="M588.81,113.92,511.32,47.05l0-.14,8-51.85.45.69ZM512,46.93l74.72,64.55-67-114.79Z"/><path class="cls-4" d="M588.37,112.9l-.49.09-178.55,38,.7-.7L511.62,46.56l.22.24Zm-177.16,37,176-37.35L511.73,47.37Z"/><path class="cls-4" d="M374,45,253.83,43.21l67-37.55.2.15Zm-118-2.4,116.34,1.84L321,6.38Z"/><path class="cls-4" d="M513.49,46.71l-1.71.54L290.17,115.47l-.12-.26L254.49,42.63l.39,0L373.3,44.5h.13Zm-223,68.06,219.36-67.5L373.66,45l-.19.28-.31-.28L255.4,43.18Z"/><path class="cls-4" d="M321.41,6.08l-.26.19L254.79,43.36l-.17-.47L211.88-93.57Zm-66.3,36.37L320.45,5.92,213-91.84Z"/><path class="cls-4" d="M290.82,115.59l-.56-.15L251.4,102.21l0-.2,3.3-60.24.5,1ZM252,101.89l37.76,12.8L255.23,44Z"/><path class="cls-4" d="M255.26,42.47l0,.52L252,102.45l-.33-.13-97.15-33,.85-.19Zm-3.83,59.2,3.2-58.4-98.15,26.2Z"/><path class="cls-4" d="M255.84,43.36l-.91-.18L79.23,7.37l.16-.54.1,0,85.32-44.7.27.14ZM80.27,7,254,42.44,164.9-37.25Z"/><path class="cls-4" d="M165.38-37.51l-.34.17-86,45,.31-.78L113.9-83.49l.36.28ZM80.24,6.34l84.17-44L114.23-82.51Z"/><path class="cls-4" d="M255.52,43.71l-.75-.62L164.52-37.62l.14-.19L212.53-93.3l.16.6ZM165.31-37.6,254.4,42.06,212.32-92.09Z"/><path class="cls-4" d="M412.19,0l-.48.52L373.66,45h-.5l-.11-.05L320.16,5.76l.68,0ZM373.33,44.49,410.75.73l-89,5.56,51.53,38.2Z"/><path class="cls-4" d="M512.78,46.35l-.86.88L410.32,150.79l-121-35.67.86-.25ZM410.08,150.14,510.62,47.63,291.28,115.14Z"/><path class="cls-4" d="M291.14,115.13l-.67.31-40.69,16.64v-.51l1.66-29.9Zm-40.75,16,39.11-16L252,102.45Z"/><polygon class="cls-4" points="-107.82 -66.67 -106.96 -65.8 45.1 99.32 44.54 99.34 2.64 96.86 1.86 96.24 43.8 98.73 -106.8 -64.88 -85.44 27.41 -86.16 26.84 -107.54 -65.49 -108.43 -65.9 -107.65 -65.94 -107.82 -66.67"/><path class="cls-4" d="M256.19,42.84l-1.11.33L155.47,69.7h0L44,99.53l.22-.62L79.39,6.83l.23,0ZM155.5,69.09,253.7,42.9,79.81,7.46,45,98.64,155.12,69.22l-.12-.49Z"/><path class="cls-4" d="M114.51-83.25,79.87,7.24l-.42.27-.2-.22L-20.91-100.37l.65.05Zm-35.1,90,34.28-89.48L-19.55-99.7Z"/><path class="cls-4" d="M80.44,7.79l-1.06-.4-186.7-72.81-.39-.27.34-.27,87.17-34.41.16.19Zm-186.86-73.4L78.5,6.49-20.24-99.67Z"/><path class="cls-4" d="M80,7l-.1.36L44.56,99.56l-.28-.36L-108.12-66.24,79.62,6.88ZM44.33,98.48,79.22,7.33-106.23-64.92Z"/><path class="cls-4" d="M512.43,47.63l-.86-.38L410.21-.06l1.64.2,74.57,9.34.12.13ZM413.54.88l97.37,45.48L486.17,10Z"/><path class="cls-4" d="M519.88-4.1l0,0-8,51.82-.46-.63L485.88,9.52l.23-.08L519.55-4.73Zm-8.4,50.32,7.79-50.14L486.74,9.87Z"/><path class="cls-4" d="M549,46.84,519.27-4.09v-.16l5.06-32.59.38,1.36ZM519.88-4.1l27.34,46.79L524.54-34.12Z"/><path class="cls-4" d="M406.77,150.31a2.79,2.79,0,0,1,2.85-3.59,4.76,4.76,0,0,1,4.46,3.52,2.8,2.8,0,0,1-2.83,3.64A4.72,4.72,0,0,1,406.77,150.31Z"/><path class="cls-4" d="M506.91,46.66a2.8,2.8,0,0,1,2.84-3.6,4.75,4.75,0,0,1,4.5,3.52,2.8,2.8,0,0,1-2.85,3.62A4.82,4.82,0,0,1,506.91,46.66Z"/><path class="cls-4" d="M482.29,9.77a2.76,2.76,0,0,1,2.8-3.56,4.67,4.67,0,0,1,4.49,3.51,2.78,2.78,0,0,1-2.82,3.58A4.7,4.7,0,0,1,482.29,9.77Z"/><path class="cls-4" d="M544.54,43.63a2.8,2.8,0,0,1,2.89-3.56,4.73,4.73,0,0,1,4.48,3.5,2.86,2.86,0,0,1-2.84,3.66A4.8,4.8,0,0,1,544.54,43.63Z"/><path class="cls-4" d="M584.22,113a2.79,2.79,0,0,1,2.86-3.62,4.74,4.74,0,0,1,4.47,3.56,2.82,2.82,0,0,1-2.84,3.6A4.83,4.83,0,0,1,584.22,113Z"/><path class="cls-4" d="M368.71,44.5a2.82,2.82,0,0,1,2.82-3.65A4.85,4.85,0,0,1,376,44.44,2.79,2.79,0,0,1,373.2,48,4.76,4.76,0,0,1,368.71,44.5Z"/><path class="cls-4" d="M407.61.91a2.83,2.83,0,0,1,2.84-3.67A4.86,4.86,0,0,1,415,.82a2.81,2.81,0,0,1-2.84,3.6A4.74,4.74,0,0,1,407.61.91Z"/><path class="cls-4" d="M317.29,6.42a2.8,2.8,0,0,1,2.84-3.6,4.74,4.74,0,0,1,4.49,3.54,2.76,2.76,0,0,1-2.82,3.57A4.71,4.71,0,0,1,317.29,6.42Z"/><path class="cls-4" d="M75.55,7.42A2.82,2.82,0,0,1,78.4,3.8a4.72,4.72,0,0,1,4.52,3.56,2.82,2.82,0,0,1-2.87,3.58A4.8,4.8,0,0,1,75.55,7.42Z"/><path class="cls-4" d="M286.11,114.72a2.82,2.82,0,0,1,2.83-3.64,4.78,4.78,0,0,1,4.51,3.56,2.79,2.79,0,0,1-2.84,3.6A4.78,4.78,0,0,1,286.11,114.72Z"/><path class="cls-4" d="M246.35,132.23a2.81,2.81,0,0,1,2.82-3.62,4.74,4.74,0,0,1,4.49,3.58,2.77,2.77,0,0,1-2.82,3.58A4.75,4.75,0,0,1,246.35,132.23Z"/><path class="cls-4" d="M151.81,69.73a2.81,2.81,0,0,1,2.86-3.58,4.72,4.72,0,0,1,4.48,3.53,2.8,2.8,0,0,1-2.8,3.63A4.84,4.84,0,0,1,151.81,69.73Z"/><path class="cls-4" d="M250.79,42.84a2.82,2.82,0,0,1,2.86-3.59,4.77,4.77,0,0,1,4.5,3.54,2.82,2.82,0,0,1-2.86,3.62A4.84,4.84,0,0,1,250.79,42.84Z"/></g><g class="cls-3"><path class="cls-4" d="M1044.27-24.07l-.59.56L999.28,17l-.2-.09L919.94-20l1.11-.06ZM999.06,16.3l43.56-39.72-120.33,3.9Z"/><path class="cls-4" d="M999.66,16.57l-.41.47h-.08L908.5,22.7l-.14-.08L798.56-77.27l1.56.73L920.38-20.43l.46.36.36.06Zm-91,5.53,89.64-5.57-77.18-36h-.36l-.63-.49L801.45-75.32Z"/><path class="cls-4" d="M1074.45,26.39l-.49,0-74.42-9.25-.89-.37.26-.3,44.53-40.67.22.41Zm-74.68-9.83,73.61,9.15-30-49Z"/><path class="cls-4" d="M1100.56,63.69l-1.2-.06-138.9-2.25.43-.46,38-44.44.7.09ZM961.79,60.87,1098,63.08l-98.53-46-.21,0Z"/><path class="cls-4" d="M1112.45-20.13l-5.07,33.24-.44-.71-34.13,14.48.88-1ZM1107,11.76,1111.52-18,1075,25.28Z"/><path class="cls-4" d="M1112.61-19.34l-.32.47L1073.9,26.62l-.23-.45-30.74-50.24.46,0Zm-38.69,44.91,37.48-44.44-67.49-4.56Z"/><path class="cls-4" d="M1176.43,130.3l-77.49-66.87,0-.14,8-51.85.45.69Zm-76.81-67,74.72,64.55-67-114.79Z"/><path class="cls-4" d="M1176,129.28l-.49.09L997,167.32l.7-.7L1099.24,62.94l.22.24Zm-177.16,37,175.95-37.35-75.44-65.18Z"/><path class="cls-4" d="M961.64,61.41,841.45,59.59,908.5,22l.19.15Zm-118-2.4L960,60.85,908.58,22.76Z"/><path class="cls-4" d="M1101.11,63.09l-1.71.54L877.79,131.85l-.12-.26L842.11,59l.39,0,118.42,1.89H961Zm-223,68.06,219.36-67.5L961.28,61.4l-.19.28-.31-.28L843,59.56Z"/><path class="cls-4" d="M909,22.46l-.26.19L842.4,59.74l-.17-.47L799.5-77.19Zm-66.3,36.37L908.07,22.3,800.61-75.46Z"/><path class="cls-4" d="M878.44,132l-.56-.15L839,118.59l0-.2,3.3-60.24.5,1Zm-38.82-13.7,37.77,12.8L842.85,60.39Z"/><path class="cls-4" d="M842.88,58.85l0,.52-3.28,59.46-.33-.13-97.16-33,.86-.19Zm-3.83,59.2,3.2-58.4L744.1,85.85Z"/><path class="cls-4" d="M843.46,59.74l-.91-.18L666.85,23.75l.15-.54.11-.05,85.32-44.7.26.14ZM667.89,23.37,841.66,58.82,752.52-20.87Z"/><path class="cls-4" d="M753-21.13l-.34.17-86,45,.31-.78,34.52-90.35.36.28ZM667.86,22.72l84.17-44L701.85-66.13Z"/><path class="cls-4" d="M843.14,60.09l-.75-.62L752.13-21.24l.15-.18,47.87-55.5.16.6ZM752.92-21.22,842,58.44,799.94-75.71Z"/><path class="cls-4" d="M999.81,16.42l-.48.52L961.28,61.4h-.5l-.11,0L907.78,22.14l.68,0ZM961,60.87l37.42-43.76-89,5.56,51.54,38.2Z"/><path class="cls-4" d="M1100.4,62.73l-.86.88L997.94,167.17l-121-35.67.86-.25ZM997.7,166.52,1098.24,64,878.89,131.52Z"/><path class="cls-4" d="M878.76,131.51l-.67.31L837.4,148.46V148l1.66-29.9Zm-40.76,16,39.12-16-37.5-12.72Z"/><polygon class="cls-4" points="479.8 -50.29 480.66 -49.42 632.72 115.7 632.16 115.72 590.26 113.23 589.48 112.62 631.42 115.11 480.82 -48.49 502.18 43.8 501.45 43.22 480.08 -49.11 479.19 -49.52 479.97 -49.56 479.8 -50.29"/><path class="cls-4" d="M843.81,59.22l-1.11.33L743.09,86.08h0L631.6,115.91l.22-.62L667,23.21l.24.05ZM743.12,85.47l98.2-26.19L667.43,23.84,632.57,115,742.74,85.61l-.12-.5Z"/><path class="cls-4" d="M702.13-66.87,667.48,23.62l-.41.27-.2-.22L566.71-84l.65,0Zm-35.1,90,34.28-89.48L568.07-83.32Z"/><path class="cls-4" d="M668.06,24.17l-1.06-.4L480.3-49l-.39-.27.34-.27L567.42-84l.16.19ZM481.19-49.23l184.92,72.1L567.38-83.29Z"/><path class="cls-4" d="M667.63,23.36l-.1.36-35.35,92.22-.28-.36L479.5-49.86,667.24,23.26ZM632,114.86l34.89-91.15L481.39-48.54Z"/><path class="cls-4" d="M1100.05,64l-.86-.38L997.83,16.32l1.64.2L1074,25.86l.12.13Zm-98.89-46.75,97.37,45.48-24.74-36.38Z"/><path class="cls-4" d="M1107.5,12.28l0,0-8,51.82-.46-.63L1073.5,25.9l.23-.08,33.44-14.17Zm-8.4,50.32,7.78-50.14-32.52,13.79Z"/><path class="cls-4" d="M994.39,166.69a2.8,2.8,0,0,1,2.85-3.59,4.77,4.77,0,0,1,4.46,3.52,2.8,2.8,0,0,1-2.83,3.64A4.72,4.72,0,0,1,994.39,166.69Z"/><path class="cls-4" d="M1094.53,63a2.8,2.8,0,0,1,2.84-3.6,4.75,4.75,0,0,1,4.5,3.52,2.8,2.8,0,0,1-2.85,3.62A4.82,4.82,0,0,1,1094.53,63Z"/><path class="cls-4" d="M1069.91,26.15a2.76,2.76,0,0,1,2.8-3.56,4.68,4.68,0,0,1,4.49,3.51,2.78,2.78,0,0,1-2.82,3.58A4.7,4.7,0,0,1,1069.91,26.15Z"/><path class="cls-4" d="M956.33,60.88a2.82,2.82,0,0,1,2.82-3.65,4.86,4.86,0,0,1,4.51,3.59,2.8,2.8,0,0,1-2.84,3.57A4.78,4.78,0,0,1,956.33,60.88Z"/><path class="cls-4" d="M995.23,17.29a2.82,2.82,0,0,1,2.84-3.66,4.84,4.84,0,0,1,4.5,3.57,2.81,2.81,0,0,1-2.84,3.6A4.73,4.73,0,0,1,995.23,17.29Z"/><path class="cls-4" d="M904.91,22.8a2.8,2.8,0,0,1,2.84-3.6,4.74,4.74,0,0,1,4.49,3.54,2.77,2.77,0,0,1-2.82,3.57A4.71,4.71,0,0,1,904.91,22.8Z"/><path class="cls-4" d="M663.17,23.8A2.82,2.82,0,0,1,666,20.18a4.72,4.72,0,0,1,4.52,3.56,2.82,2.82,0,0,1-2.87,3.58A4.8,4.8,0,0,1,663.17,23.8Z"/><path class="cls-4" d="M873.73,131.1a2.82,2.82,0,0,1,2.83-3.64,4.78,4.78,0,0,1,4.51,3.56,2.79,2.79,0,0,1-2.84,3.6A4.78,4.78,0,0,1,873.73,131.1Z"/><path class="cls-4" d="M834,148.61a2.81,2.81,0,0,1,2.82-3.62,4.74,4.74,0,0,1,4.49,3.58,2.77,2.77,0,0,1-2.82,3.58A4.75,4.75,0,0,1,834,148.61Z"/><path class="cls-4" d="M739.43,86.11a2.81,2.81,0,0,1,2.86-3.58,4.72,4.72,0,0,1,4.48,3.53,2.8,2.8,0,0,1-2.8,3.63A4.84,4.84,0,0,1,739.43,86.11Z"/><path class="cls-4" d="M838.41,59.22a2.82,2.82,0,0,1,2.85-3.59,4.78,4.78,0,0,1,4.51,3.54,2.82,2.82,0,0,1-2.86,3.62A4.84,4.84,0,0,1,838.41,59.22Z"/></g></g><g id="TEXTS"><rect class="cls-4" x="130.42" y="640.31" width="839.17" height="562.11" rx="54.18"/><g class="cls-5"><image width="460" height="542" transform="translate(148.09 255.67) scale(1.75)" xlink:href="../../../Downloads/pic-removebg-preview.png"/></g><path class="cls-4" d="M254.18,1274.3v-6h-6v2.52H225.44v-2.52h-6v2.52H196.7v-2.52h-6v6h2.52v22.75h-2.52v6h2.52v22.75h-2.52v6h6v-2.52h22.75v2.52h6v-2.52h22.75v2.52h6v-6h-2.53V1303h2.53v-6h-2.53V1274.3Zm-3.46,22.75h-2.53v6h2.53v22.75h-2.53v2.53H225.44v-2.53h-6v2.53H196.7v-2.53h-2.52V1303h2.52v-6h-2.52V1274.3h2.52v-2.53h22.75v2.53h6v-2.53h22.75v2.53h2.53Z"/><path class="cls-4" d="M214.35,1308.67a1.63,1.63,0,0,1-1.12-.46l-7-7a1.6,1.6,0,0,1,0-2.24l7-7.05a1.6,1.6,0,0,1,2.24,0,1.58,1.58,0,0,1,0,2.24l-5.93,5.93,5.93,5.93a1.58,1.58,0,0,1,0,2.24A1.63,1.63,0,0,1,214.35,1308.67Z"/><path class="cls-4" d="M230.54,1308.67a1.58,1.58,0,0,1-1.11-2.7l5.92-5.93-5.92-5.93a1.58,1.58,0,1,1,2.23-2.24l7.05,7.05a1.58,1.58,0,0,1,0,2.24l-7.05,7A1.61,1.61,0,0,1,230.54,1308.67Z"/><path class="cls-4" d="M218.59,1312.42a1.6,1.6,0,0,1-.53-.09,1.57,1.57,0,0,1-1-2l7.72-21.6a1.58,1.58,0,0,1,3,1.06l-7.72,21.6A1.58,1.58,0,0,1,218.59,1312.42Z"/><text class="cls-6" transform="translate(289.62 1295.3)">AkashGunasekar</text><text class="cls-7" transform="translate(289.62 1329.18)">-FullStack Developer</text></g></svg>