<svg xmlns="http://www.w3.org/2000/svg" viewBox="0 0 1920 1280"><defs><style>.cls-1{fill:#2383eb;}.cls-2,.cls-4,.cls-5,.cls-7{fill:#fff;}.cls-3{fill:none;stroke-linecap:round;stroke-linejoin:round;stroke-width:3px;}.cls-3,.cls-4{stroke:#fff;}.cls-4{stroke-miterlimit:10;}.cls-5{font-size:40.22px;font-family:Poppins-Bold, Poppins;font-weight:700;}.cls-6{fill:#ffcf30;}.cls-7{font-size:14.08px;font-family:Poppins-Regular, Poppins;}</style></defs><g id="BACKGROUND"><rect class="cls-1" width="1920" height="1280"/></g><g id="TEXTS"><rect class="cls-2" x="834.43" y="403.3" width="9.64" height="9.64" transform="translate(1174.37 1279.11) rotate(-136.98)"/><path class="cls-3" d="M689.51,350.24a71.8,71.8,0,0,1,96.64,106.21"/><line class="cls-3" x1="742.61" y1="301.92" x2="839.26" y2="408.13"/><path class="cls-4" d="M794.18,358.59a4.82,4.82,0,1,1,.32-6.81A4.82,4.82,0,0,1,794.18,358.59Z"/><rect class="cls-2" x="737.79" y="297.09" width="9.64" height="9.64" transform="translate(466.13 -450.54) rotate(47.7)"/><path class="cls-2" d="M276.78,379.23V374h-5.27v2.23h-20V374h-5.27v2.23h-20V374h-5.27v5.28h2.22v20h-2.22v5.27h2.22v20h-2.22v5.27h5.27V427.6h20v2.23h5.27V427.6h20v2.23h5.27v-5.27h-2.22v-20h2.22v-5.27h-2.22v-20Zm-3,20h-2.23v5.27h2.23v20h-2.23v2.22h-20v-2.22h-5.27v2.22h-20v-2.22H224v-20h2.22v-5.27H224v-20h2.22V377h20v2.23h5.27V377h20v2.23h2.23Z"/><path class="cls-2" d="M241.72,409.49a1.42,1.42,0,0,1-1-.41l-6.2-6.2a1.4,1.4,0,0,1,0-2l6.2-6.21a1.4,1.4,0,0,1,2,0,1.38,1.38,0,0,1,0,2l-5.22,5.22,5.22,5.22a1.4,1.4,0,0,1-1,2.38Z"/><path class="cls-2" d="M256,409.49a1.4,1.4,0,0,1-1-2.38l5.22-5.22L255,396.67a1.39,1.39,0,1,1,2-2l6.21,6.21a1.4,1.4,0,0,1,0,2l-6.21,6.2A1.4,1.4,0,0,1,256,409.49Z"/><path class="cls-2" d="M245.45,412.79a1.6,1.6,0,0,1-.47-.08,1.4,1.4,0,0,1-.84-1.78l6.79-19a1.4,1.4,0,0,1,2.63.94l-6.8,19A1.38,1.38,0,0,1,245.45,412.79Z"/><text class="cls-5" transform="translate(296.28 395.82)">Knowing is not Enough, <tspan x="0" y="48.26">we must </tspan><tspan class="cls-6" x="185.13" y="48.26">Apply</tspan></text><text class="cls-7" transform="translate(555.39 480.85)">-Bruce Lee</text></g></svg>