<svg xmlns="http://www.w3.org/2000/svg" viewBox="0 0 1920 1280"><defs><style>.cls-1{fill:#2383eb;}.cls-2,.cls-4,.cls-5,.cls-7{fill:#fff;}.cls-3{fill:none;stroke-linecap:round;stroke-linejoin:round;stroke-width:3px;}.cls-3,.cls-4{stroke:#fff;}.cls-4{stroke-miterlimit:10;}.cls-5{font-size:47.84px;font-family:Poppins-Bold, Poppins;font-weight:700;}.cls-6{fill:#ffcf30;}.cls-7{font-size:16.74px;font-family:Poppins-Regular, Poppins;}</style></defs><g id="BACKGROUND"><rect class="cls-1" width="1920" height="1280"/></g><g id="TEXTS"><rect class="cls-2" x="891.45" y="405.44" width="11.47" height="11.47" transform="translate(1272.57 1323.92) rotate(-136.98)"/><path class="cls-3" d="M719.07,342.32A85.4,85.4,0,0,1,834,468.66"/><line class="cls-3" x1="782.23" y1="284.85" x2="897.19" y2="411.18"/><path class="cls-4" d="M843.57,352.26a5.74,5.74,0,1,1,.38-8.11A5.73,5.73,0,0,1,843.57,352.26Z"/><rect class="cls-2" x="776.5" y="279.11" width="11.47" height="11.47" transform="translate(466.46 -485.42) rotate(47.7)"/><path class="cls-2" d="M228.15,376.8v-6.27h-6.27v2.65H198.05v-2.65h-6.27v2.65H168v-2.65h-6.27v6.27h2.64v23.83h-2.64v6.27h2.64v23.82h-2.64V437H168v-2.64h23.82V437h6.27v-2.64h23.83V437h6.27v-6.27H225.5V406.9h2.65v-6.27H225.5V376.8Zm-3.63,23.83h-2.64v6.27h2.64v23.82h-2.64v2.65H198.05v-2.65h-6.27v2.65H168v-2.65h-2.65V406.9H168v-6.27h-2.65V376.8H168v-2.64h23.82v2.64h6.27v-2.64h23.83v2.64h2.64Z"/><path class="cls-2" d="M186.44,412.8a1.64,1.64,0,0,1-1.17-.48l-7.38-7.39a1.65,1.65,0,0,1,0-2.34l7.38-7.38a1.67,1.67,0,0,1,2.34,0,1.65,1.65,0,0,1,0,2.34l-6.21,6.21,6.21,6.21a1.66,1.66,0,0,1-1.17,2.83Z"/><path class="cls-2" d="M203.4,412.8a1.64,1.64,0,0,1-1.17-.48,1.66,1.66,0,0,1,0-2.35l6.2-6.21-6.2-6.21a1.65,1.65,0,0,1,0-2.34,1.67,1.67,0,0,1,2.34,0l7.38,7.38a1.65,1.65,0,0,1,0,2.34l-7.38,7.39A1.68,1.68,0,0,1,203.4,412.8Z"/><path class="cls-2" d="M190.88,416.73a1.54,1.54,0,0,1-.56-.1,1.66,1.66,0,0,1-1-2.12l8.08-22.61a1.66,1.66,0,0,1,3.12,1.11l-8.08,22.62A1.66,1.66,0,0,1,190.88,416.73Z"/><text class="cls-5" transform="translate(251.34 396.54)">Knowing is not Enough, <tspan x="0" y="57.41">You must </tspan><tspan class="cls-6" x="244.13" y="57.41">Apply</tspan></text><text class="cls-7" transform="translate(583.33 497.69)">-Bruce Lee</text></g></svg>